<?xml version="1.0" encoding="UTF-8" standalone="no"?>
<svg
   xmlns:dc="http://purl.org/dc/elements/1.1/"
   xmlns:cc="http://creativecommons.org/ns#"
   xmlns:rdf="http://www.w3.org/1999/02/22-rdf-syntax-ns#"
   xmlns:svg="http://www.w3.org/2000/svg"
   xmlns="http://www.w3.org/2000/svg"
   xmlns:sodipodi="http://sodipodi.sourceforge.net/DTD/sodipodi-0.dtd"
   xmlns:inkscape="http://www.inkscape.org/namespaces/inkscape"
   data-v-fde0c5aa=""
   viewBox="0 0 33 33"
   class="iconLeft"
   version="1.1"
   id="svg20"
   sodipodi:docname="sitelogo.svg"
   width="33"
   height="33"
   inkscape:export-filename="C:\Users\Emiliano\Desktop\Enneagram Journal-logo\vector\sitelogo.png"
   inkscape:export-xdpi="96"
   inkscape:export-ydpi="96"
   inkscape:version="1.0.1 (3bc2e813f5, 2020-09-07)">
  <metadata
     id="metadata24">
    <rdf:RDF>
      <cc:Work
         rdf:about="">
        <dc:format>image/svg+xml</dc:format>
        <dc:type
           rdf:resource="http://purl.org/dc/dcmitype/StillImage" />
        <dc:title />
      </cc:Work>
    </rdf:RDF>
  </metadata>
  <sodipodi:namedview
     pagecolor="#ffffff"
     bordercolor="#666666"
     borderopacity="1"
     objecttolerance="10"
     gridtolerance="10"
     guidetolerance="10"
     inkscape:pageopacity="0"
     inkscape:pageshadow="2"
     inkscape:window-width="1920"
     inkscape:window-height="1001"
     id="namedview22"
     showgrid="false"
     inkscape:zoom="22.133333"
     inkscape:cx="23.150156"
     inkscape:cy="16.786705"
     inkscape:window-x="-9"
     inkscape:window-y="-9"
     inkscape:window-maximized="1"
     inkscape:current-layer="svg20"
     inkscape:document-rotation="0" />
  <!---->
  <defs
     data-v-fde0c5aa=""
     id="defs2">
    <!---->
  </defs>
  <defs
     data-v-fde0c5aa=""
     id="defs6">
    <!---->
  </defs>
  <defs
     data-v-fde0c5aa=""
     id="defs11">
    <!---->
  </defs>
  <g
     data-v-fde0c5aa=""
     id="db5a9774-1a8c-43f2-b483-add90f27c1f6"
     stroke="none"
     fill="#754220"
     transform="matrix(0.29575334,0,0,0.29575334,-4.5967171,-4.4819197)"
     style="fill:#f9f9f9">
    <switch
       id="switch17"
       style="fill:#f9f9f9">
      <g
         id="g15"
         style="fill:#f9f9f9">
        <path
           d="M 103.323,80.648 117.966,61.321 96.826,53.188 103.005,32.519 81.646,40.089 71.58,21.259 61.447,39.575 40.815,31.637 46.632,52.499 23.764,60.604 38.849,80.421 29.254,97.764 H 52.051 L 69.009,120.04 62.797,97.764 h 17.145 l -6.787,22.708 17.203,-22.708 h 22.114 z m 9.185,-17.772 -10.954,14.46 -7.661,-14.333 1.954,-6.537 z M 99.286,80.329 88.662,94.352 h -4.141 l 7.984,-26.708 z m -7.677,-21.597 -2.621,-4.905 3.666,1.411 z M 97.812,37.978 93.634,51.96 86.529,49.227 83.272,43.132 Z m -16.153,9.374 -4.937,-1.899 3.297,-1.168 z m -10.13,-18.953 6.864,12.843 -6.567,2.327 -7.165,-2.757 z m -4.647,16.923 -5.867,2.08 1.979,-3.576 z m -20.959,-8.065 13.857,5.332 -3.613,6.531 -6.312,2.237 z m 4.85,17.393 2.903,-1.029 -2.121,3.833 z m -21.464,7.607 18.241,-6.465 1.651,5.918 -8.547,15.448 z m 21.198,4.138 7.797,27.957 H 53.742 L 42.911,80.125 Z M 35.04,94.352 41.107,83.386 49.455,94.352 Z m 25.901,9.458 -4.603,-6.047 h 2.917 z m 0.904,-9.458 -8.983,-32.213 5.664,-10.237 13.253,-4.697 12.34,4.748 6.104,11.419 -9.261,30.979 H 61.845 Z m 19.978,9.027 1.679,-5.615 h 2.576 z m 19.232,-19.738 5.725,10.711 H 92.941 Z"
           id="path13"
           style="fill:#f9f9f9" />
      </g>
    </switch>
  </g>
  <!---->
</svg>
